# xmcd
#
# Track frame offsets: 
#        150
#        15172
#        31560
#        43032
#        58060
#        74755
#        88540
#        101262
#        116430
#        126375
#
# Disc length: 1855 seconds
#
# Revision: 2
# Processed by: cddbd v1.5.1PL0 Copyright (c) Steve Scherf et al.
# Submitted via: ExactAudioCopy v0.90b4
#
DISCID=79073d0a
DTITLE=Ricky Van Shelton - Super Hits, Vol. 2
DYEAR=1900
DGENRE=Country
TTITLE0=Wild Man
TTITLE1=Life's Little Up And Downs
TTITLE2=Hole In My Pocket
TTITLE3=After The Lights Go Out
TTITLE4=Backroads
TTITLE5=I Meant Every Word He Said
TTITLE6=Wild-Eyed Dream
TTITLE7=Living Proof
TTITLE8=Wear My Ring Around Your Neck
TTITLE9=Oh Pretty Woman
EXTD=
EXTT0=
EXTT1=
EXTT2=
EXTT3=
EXTT4=
EXTT5=
EXTT6=
EXTT7=
EXTT8=
EXTT9=
PLAYORDER=
